<svg width="9" height="12" viewBox="0 0 9 12" fill="none" xmlns="http://www.w3.org/2000/svg">
<path d="M8.64616 1V11.2929C8.64617 11.3918 8.61669 11.4885 8.56146 11.5707C8.50623 11.6529 8.42772 11.717 8.33588 11.7549C8.24403 11.7927 8.14296 11.8026 8.04545 11.7833C7.94795 11.764 7.85838 11.7164 7.78808 11.6465L4.37356 8.25L0.959037 11.6465C0.888737 11.7164 0.799168 11.764 0.70166 11.7833C0.604151 11.8026 0.503083 11.7927 0.411234 11.7549C0.319385 11.717 0.240882 11.6529 0.185652 11.5707C0.130422 11.4885 0.100947 11.3918 0.100952 11.2929V1C0.10096 0.734786 0.20688 0.480437 0.395412 0.292902C0.583944 0.105367 0.839647 7.95606e-06 1.10627 0H7.64085C7.90747 7.95606e-06 8.16317 0.105367 8.3517 0.292902C8.54024 0.480437 8.64616 0.734786 8.64616 1Z" fill="white"/>
</svg>
