<svg width="12" height="8" viewBox="0 0 12 8" fill="none" xmlns="http://www.w3.org/2000/svg">
<path d="M5.64651 7.66434L0.542926 2.56067C0.496044 2.51378 0.469706 2.45019 0.469706 2.38389C0.469706 2.31758 0.496044 2.25399 0.542926 2.2071L1.95718 0.793068C2.00406 0.746186 2.06765 0.719849 2.13395 0.719849C2.20025 0.719849 2.26384 0.746186 2.31072 0.793068L6.00005 4.48228L9.68938 0.793068C9.73626 0.746186 9.79985 0.719849 9.86615 0.719849C9.93246 0.719849 9.99604 0.746186 10.0429 0.793068L11.4572 2.2071C11.5041 2.25399 11.5304 2.31758 11.5304 2.38389C11.5304 2.45019 11.5041 2.51378 11.4572 2.56067L6.3536 7.66434C6.30717 7.71078 6.25205 7.74761 6.19139 7.77274C6.13073 7.79787 6.06571 7.81081 6.00005 7.81081C5.93439 7.81081 5.86937 7.79787 5.80871 7.77274C5.74805 7.74761 5.69293 7.71078 5.64651 7.66434Z" fill="black"/>
</svg>
