<svg width="24" height="24" viewBox="0 0 24 24" fill="none" xmlns="http://www.w3.org/2000/svg">
<path d="M23.25 1.99183V22.0083C23.25 22.3376 23.1191 22.6535 22.8863 22.8864C22.6534 23.1192 22.3376 23.2501 22.0082 23.2501H16.2746V14.5369H19.1993L19.6372 11.1412H16.2746V8.97317C16.2746 7.99001 16.5476 7.32003 17.9575 7.32003L19.7556 7.3192V4.28211C18.8853 4.18988 18.0106 4.14522 17.1354 4.14832C14.5428 4.14832 12.7679 5.73082 12.7679 8.63694V11.1412H9.8358V14.5369H12.768V23.2501H1.99183C1.82875 23.2501 1.66726 23.218 1.51659 23.1556C1.36592 23.0932 1.22902 23.0017 1.1137 22.8864C0.998383 22.7711 0.90691 22.6342 0.844506 22.4835C0.782102 22.3329 0.749989 22.1714 0.75 22.0083V1.99183C0.749975 1.82874 0.782079 1.66725 0.844479 1.51657C0.906878 1.3659 0.99835 1.22899 1.11367 1.11367C1.22899 0.99835 1.3659 0.906878 1.51657 0.844479C1.66725 0.782079 1.82874 0.749975 1.99183 0.75H22.0082C22.1713 0.75 22.3328 0.782121 22.4834 0.84453C22.6341 0.906938 22.771 0.998411 22.8863 1.11373C23.0016 1.22904 23.0931 1.36594 23.1555 1.51661C23.2179 1.66727 23.25 1.82875 23.25 1.99183Z" fill="#262626"/>
</svg>
