<svg width="12" height="10" viewBox="0 0 12 10" fill="none" xmlns="http://www.w3.org/2000/svg">
<path d="M10.9647 4.20334L8.16811 6.23468L9.23449 9.51856C9.24846 9.56152 9.25205 9.60718 9.24498 9.6518C9.23791 9.69642 9.22038 9.73873 9.19382 9.77527C9.16726 9.81181 9.13243 9.84155 9.09217 9.86205C9.05191 9.88254 9.00738 9.89322 8.9622 9.8932C8.90213 9.89288 8.84374 9.87334 8.79558 9.83745L6.00184 7.80819L3.20808 9.83745C3.15991 9.87334 3.10152 9.89288 3.04145 9.8932C2.99628 9.89321 2.95174 9.88253 2.91149 9.86204C2.87124 9.84154 2.83641 9.8118 2.80985 9.77526C2.78329 9.73872 2.76576 9.69641 2.75869 9.65179C2.75161 9.60718 2.7552 9.56152 2.76916 9.51856L3.83554 6.23468L1.039 4.20334C0.990262 4.16794 0.95398 4.11802 0.935358 4.06073C0.916736 4.00345 0.916729 3.94173 0.93534 3.88444C0.95395 3.82715 0.990221 3.77722 1.03895 3.74181C1.08769 3.70641 1.14638 3.68734 1.20662 3.68734H4.66277L5.73055 0.399253C5.74917 0.341962 5.78544 0.292035 5.83417 0.256627C5.88291 0.221219 5.9416 0.202148 6.00184 0.202148C6.06208 0.202148 6.12077 0.221219 6.16951 0.256627C6.21824 0.292035 6.25451 0.341962 6.27313 0.399253L7.34088 3.68734H10.797C10.8573 3.68735 10.9159 3.70643 10.9647 3.74184C11.0134 3.77725 11.0497 3.82718 11.0683 3.88446C11.0869 3.94174 11.0869 4.00345 11.0683 4.06073C11.0496 4.11801 11.0134 4.16793 10.9647 4.20334Z" fill="#E77C40"/>
</svg>
