<svg width="13" height="12" viewBox="0 0 13 12" fill="none" xmlns="http://www.w3.org/2000/svg">
<path d="M12.0442 3.96278C12.0442 6.37611 8.9601 8.30342 6.49608 10.9971C6.44895 11.0493 6.39131 11.091 6.3269 11.1196C6.26249 11.1481 6.19276 11.1629 6.12225 11.1629C6.05173 11.1629 5.982 11.1481 5.91759 11.1196C5.85318 11.091 5.79554 11.0493 5.74841 10.9971C3.28438 8.30342 0.200317 6.37611 0.200317 3.96278C0.200317 1.19801 3.98849 -0.780629 6.01864 2.05006C6.03044 2.06692 6.04611 2.08074 6.06436 2.09037C6.0826 2.1 6.10289 2.10516 6.12354 2.10544C6.1442 2.10571 6.16462 2.10109 6.18311 2.09195C6.20161 2.0828 6.21765 2.06941 6.2299 2.05287C8.37412 -0.78197 12.0442 1.19716 12.0442 3.96278Z" fill="white"/>
</svg>
