<svg width="23" height="21" viewBox="0 0 23 21" fill="none" xmlns="http://www.w3.org/2000/svg">
<path d="M21.8779 17.8582L15.8681 12.222C16.9465 10.6164 17.3562 8.69441 17.0189 6.82337C16.6816 4.95232 15.621 3.26345 14.0398 2.07951C12.4585 0.895562 10.4676 0.299581 8.44736 0.405461C6.42715 0.511342 4.51938 1.31166 3.08865 2.65346C1.65792 3.99526 0.804557 5.78445 0.691659 7.67909C0.578761 9.57373 1.21424 11.4409 2.47665 12.9239C3.73906 14.4068 5.53987 15.4015 7.53493 15.7179C9.52998 16.0342 11.5794 15.65 13.2914 14.6386L19.3012 20.2748C19.3858 20.3542 19.4863 20.4171 19.5968 20.4601C19.7073 20.503 19.8258 20.5251 19.9455 20.5251C20.0651 20.5251 20.1836 20.503 20.2941 20.4601C20.4047 20.4171 20.5051 20.3542 20.5897 20.2748L21.878 19.0665C22.0488 18.9063 22.1448 18.689 22.1448 18.4624C22.1448 18.2358 22.0488 18.0184 21.8779 17.8582ZM8.93435 13.2625C7.85319 13.2625 6.79632 12.9618 5.89737 12.3985C4.99842 11.8351 4.29777 11.0345 3.88403 10.0977C3.47029 9.16092 3.36204 8.13012 3.57296 7.13565C3.78389 6.14118 4.30451 5.2277 5.06901 4.51072C5.8335 3.79375 6.80752 3.30548 7.8679 3.10767C8.92829 2.90986 10.0274 3.01138 11.0263 3.39941C12.0251 3.78743 12.8789 4.44452 13.4795 5.2876C14.0802 6.13067 14.4008 7.12185 14.4008 8.13581C14.3992 9.49502 13.8228 10.7981 12.7979 11.7593C11.7731 12.7204 10.3836 13.261 8.93435 13.2625Z" fill="#01B4E4"/>
</svg>
