<svg width="12" height="12" viewBox="0 0 12 12" fill="none" xmlns="http://www.w3.org/2000/svg">
<path d="M11.8263 5.08988L8.61326 7.41142L9.83846 11.1644C9.8545 11.2135 9.85863 11.2657 9.85051 11.3167C9.84239 11.3677 9.82224 11.416 9.79173 11.4578C9.76122 11.4996 9.72119 11.5335 9.67494 11.557C9.62869 11.5804 9.57752 11.5926 9.52562 11.5926C9.4566 11.5922 9.38951 11.5699 9.33417 11.5289L6.12435 9.20971L2.91449 11.5289C2.85916 11.5699 2.79207 11.5922 2.72305 11.5926C2.67115 11.5926 2.61998 11.5804 2.57373 11.557C2.52748 11.5335 2.48747 11.4996 2.45695 11.4578C2.42644 11.416 2.4063 11.3677 2.39817 11.3167C2.39005 11.2657 2.39417 11.2135 2.41021 11.1644L3.63541 7.41142L0.422364 5.08988C0.366364 5.04943 0.324679 4.99237 0.303284 4.9269C0.281888 4.86143 0.28188 4.7909 0.303262 4.72543C0.324644 4.65995 0.366317 4.60289 0.422308 4.56242C0.478299 4.52196 0.545733 4.50016 0.614943 4.50016H4.58584L5.81265 0.742352C5.83404 0.676877 5.87572 0.619817 5.93171 0.579351C5.9877 0.538885 6.05514 0.51709 6.12435 0.51709C6.19356 0.51709 6.26099 0.538885 6.31699 0.579351C6.37298 0.619817 6.41466 0.676877 6.43604 0.742352L7.66282 4.50016H11.6337C11.7029 4.50018 11.7703 4.52199 11.8263 4.56246C11.8823 4.60292 11.924 4.65998 11.9453 4.72545C11.9667 4.79091 11.9667 4.86143 11.9453 4.9269C11.924 4.99236 11.8823 5.04942 11.8263 5.08988Z" fill="white"/>
</svg>
