<svg width="26" height="21" viewBox="0 0 26 21" fill="none" xmlns="http://www.w3.org/2000/svg">
<path d="M22.6832 5.56634C22.6929 5.78094 22.6929 5.99551 22.6929 6.21012C22.6926 8.76176 22.0062 11.2664 20.7058 13.4618C19.4054 15.6572 17.5387 17.4626 15.3011 18.6891C13.0635 19.9155 10.5374 20.5179 7.98718 20.4332C5.43694 20.3485 2.95638 19.5797 0.805176 18.2074C1.20004 18.2547 1.59745 18.2775 1.99513 18.2757C4.24844 18.2785 6.43709 17.5226 8.20839 16.1298C7.16465 16.111 6.15295 15.7661 5.3151 15.1434C4.47725 14.5207 3.85524 13.6514 3.53626 12.6574C4.28428 12.799 5.05468 12.769 5.78941 12.5697C4.65842 12.3386 3.64186 11.7242 2.91146 10.8303C2.18106 9.9364 1.78161 8.81779 1.78057 7.66343V7.59515C2.47548 7.97779 3.25064 8.19164 4.04345 8.21944C2.98598 7.50994 2.23755 6.42519 1.94962 5.18473C1.66169 3.94428 1.85578 2.64076 2.49259 1.53799C3.74851 3.08354 5.31541 4.34768 7.09158 5.24837C8.86775 6.14906 10.8135 6.66615 12.8025 6.76608C12.7207 6.39111 12.6782 6.00865 12.6757 5.62489C12.6755 4.62171 12.9769 3.64165 13.5408 2.81194C14.1046 1.98224 14.9049 1.34121 15.8377 0.972085C16.7705 0.60296 17.7927 0.522786 18.7717 0.741974C19.7506 0.961161 20.641 1.46959 21.3274 2.20124C22.4489 1.98365 23.5245 1.57451 24.5072 0.991769C24.1321 2.15164 23.3488 3.13596 22.3028 3.76187C23.2956 3.64191 24.2653 3.37567 25.1802 2.9718C24.5085 3.97804 23.6629 4.8566 22.6832 5.56634Z" fill="#262626"/>
</svg>
